<?xml version="1.0" encoding="UTF-8"?>
<svg xmlns="http://www.w3.org/2000/svg" viewBox="0 0 333.94 106.35" role="img" aria-label="your desk">
  <title>your desk</title>
  <g id="your" fill="currentColor">
    <path d="M23.08 94.03L14.01 94.03L21.50 73.44L21.64 79.49L4.72 37.87L14.87 37.87L26.25 67.32L23.94 67.32L35.25 37.87L45.04 37.87 M64.34 77.83Q58.47 77.83 54.04 75.20Q49.61 72.58 47.15 67.95Q44.68 63.32 44.68 57.31Q44.68 51.23 47.20 46.60Q49.72 41.98 54.15 39.38Q58.58 36.79 64.34 36.79Q70.20 36.79 74.65 39.42Q79.10 42.05 81.58 46.67Q84.06 51.30 84.06 57.31Q84.06 63.36 81.56 67.99Q79.06 72.61 74.61 75.22Q70.17 77.83 64.34 77.83M64.34 68.69Q69.05 68.69 71.37 65.50Q73.70 62.32 73.70 57.31Q73.70 52.13 71.34 49.03Q68.98 45.94 64.34 45.94Q61.13 45.94 59.08 47.38Q57.03 48.82 56.04 51.37Q55.05 53.93 55.05 57.31Q55.05 62.53 57.41 65.61Q59.76 68.69 64.34 68.69 M103.22 77.90Q98.64 77.90 95.76 76.36Q92.88 74.81 91.28 72.43Q89.68 70.06 89 67.48Q88.31 64.91 88.17 62.78Q88.02 60.66 88.02 59.69L88.02 37.87L97.96 37.87L97.96 56.23Q97.96 57.56 98.10 59.63Q98.25 61.70 99 63.79Q99.76 65.88 101.47 67.28Q103.18 68.69 106.31 68.69Q107.57 68.69 109.01 68.29Q110.45 67.90 111.71 66.76Q112.97 65.63 113.78 63.41Q114.59 61.20 114.59 57.60L120.21 60.26Q120.21 64.87 118.34 68.90Q116.46 72.94 112.70 75.42Q108.94 77.90 103.22 77.90M124.46 76.75L115.82 76.75L115.82 63.86L114.59 63.86L114.59 37.87L124.46 37.87 M141.16 76.75L131.30 76.75L131.30 37.87L139.94 37.87L139.94 47.38L139 46.15Q139.76 44.14 141.02 42.48Q142.28 40.82 144.11 39.74Q145.52 38.88 147.17 38.39Q148.83 37.91 150.59 37.78Q152.36 37.66 154.12 37.87L154.12 47.02Q152.50 46.51 150.36 46.67Q148.22 46.84 146.49 47.66Q144.76 48.46 143.57 49.77Q142.38 51.08 141.77 52.87Q141.16 54.65 141.16 56.88"/>
  </g>
  <g id="desk" fill="#2B5CE6">
    <path d="M192.57 77.83Q187.20 77.83 183.17 75.13Q179.14 72.43 176.89 67.79Q174.64 63.14 174.64 57.31Q174.64 51.37 176.93 46.75Q179.21 42.12 183.35 39.46Q187.49 36.79 193.07 36.79Q198.62 36.79 202.40 39.49Q206.18 42.19 208.12 46.84Q210.06 51.48 210.06 57.31Q210.06 63.14 208.10 67.79Q206.14 72.43 202.25 75.13Q198.36 77.83 192.57 77.83M194.15 69.12Q197.43 69.12 199.39 67.64Q201.35 66.17 202.22 63.50Q203.08 60.84 203.08 57.31Q203.08 53.78 202.22 51.12Q201.35 48.46 199.46 46.98Q197.57 45.50 194.51 45.50Q191.24 45.50 189.13 47.11Q187.02 48.71 186.02 51.39Q185.01 54.07 185.01 57.31Q185.01 60.59 185.98 63.27Q186.95 65.95 188.97 67.54Q190.98 69.12 194.15 69.12M211.72 76.75L203.08 76.75L203.08 50.11L201.86 50.11L201.86 24.91L211.72 24.91 M236.63 77.83Q230.66 77.83 226.10 75.26Q221.55 72.68 218.97 68.17Q216.40 63.65 216.40 57.82Q216.40 51.44 218.92 46.73Q221.44 42.01 225.87 39.40Q230.30 36.79 236.06 36.79Q242.18 36.79 246.46 39.67Q250.74 42.55 252.80 47.77Q254.85 52.99 254.24 60.05L244.55 60.05L244.55 56.45Q244.55 50.51 242.66 47.90Q240.77 45.29 236.49 45.29Q231.48 45.29 229.13 48.33Q226.77 51.37 226.77 57.31Q226.77 62.75 229.13 65.72Q231.48 68.69 236.06 68.69Q238.94 68.69 240.99 67.43Q243.04 66.17 244.12 63.79L253.91 66.60Q251.72 71.93 246.98 74.88Q242.25 77.83 236.63 77.83M249.52 60.05L223.74 60.05L223.74 52.78L249.52 52.78 M274.29 77.83Q266.94 77.83 262.43 74.50Q257.91 71.17 256.94 65.09L266.94 63.58Q267.56 66.31 269.66 67.86Q271.77 69.41 275.01 69.41Q277.67 69.41 279.11 68.38Q280.55 67.36 280.55 65.52Q280.55 64.37 279.98 63.67Q279.40 62.96 277.40 62.28Q275.40 61.60 271.19 60.48Q266.44 59.26 263.60 57.74Q260.75 56.23 259.49 54.13Q258.23 52.02 258.23 49.03Q258.23 45.29 260.14 42.53Q262.05 39.78 265.52 38.29Q269 36.79 273.71 36.79Q278.28 36.79 281.81 38.20Q285.34 39.60 287.52 42.19Q289.70 44.78 290.20 48.31L280.19 50.11Q279.94 47.95 278.32 46.69Q276.70 45.43 273.93 45.22Q271.23 45.04 269.59 45.94Q267.95 46.84 267.95 48.53Q267.95 49.54 268.65 50.22Q269.36 50.90 271.57 51.62Q273.78 52.34 278.32 53.50Q282.75 54.65 285.43 56.18Q288.11 57.71 289.34 59.85Q290.56 61.99 290.56 65.02Q290.56 70.99 286.24 74.41Q281.92 77.83 274.29 77.83 M305.18 76.75L295.17 76.75L295.24 24.91L305.18 24.91L305.18 56.59L318.35 37.87L330.45 37.87L316.41 57.31L331.38 76.75L318.64 76.75L305.18 58.03"/>
  </g>
</svg>
